<?xml version="1.0" encoding="UTF-8"?>
<svg id="Layer_1" data-name="Layer 1" xmlns="http://www.w3.org/2000/svg" viewBox="0 0 266.46 65.2">
  <defs>
    <style>
      .cls-1 {
        fill: #231f20;
        stroke-width: 0px;
      }
    </style>
  </defs>
  <path class="cls-1" d="M.92,41.03c18.41-4.29,33.28-13.84,45.15-27.99-1.78-1.33-3.58-2.67-6.13-4.57,7.03-2.52,13.32-4.77,19.9-7.13v21.46c-1.89-1.67-3.2-2.83-4.88-4.32-14.93,14.59-31.94,24.77-54.05,22.54Z"/>
  <path class="cls-1" d="M59.85,64.35h-10.7V28.58h10.7v35.78Z"/>
  <path class="cls-1" d="M44.09,64.46h-11.67v-25.78h11.67v25.78Z"/>
  <path class="cls-1" d="M26.99,64.44h-10.54v-19.78h10.54v19.78Z"/>
  <path class="cls-1" d="M11.18,64.44H.56v-17.92h10.63v17.92Z"/>
  <g>
    <path class="cls-1" d="M64.9,64.46v-22.37h3.36v3.49c.81-1.07,1.79-1.98,2.96-2.73,1.17-.75,2.66-1.12,4.49-1.12,1.55,0,3.01.37,4.37,1.1,1.36.73,2.47,1.82,3.32,3.27.85,1.45,1.28,3.23,1.28,5.35v13.02h-3.36v-12.93c0-2.03-.58-3.66-1.75-4.9-1.17-1.24-2.68-1.86-4.53-1.86-1.26,0-2.39.28-3.41.85-1.02.57-1.83,1.36-2.44,2.39-.61,1.03-.92,2.21-.92,3.56v12.88h-3.36Z"/>
    <path class="cls-1" d="M90.2,64.46v-22.37h3.37v3.4c.51-.89,1.32-1.74,2.42-2.55s2.57-1.21,4.4-1.21c1.49,0,2.88.4,4.15,1.19,1.27.79,2.26,1.9,2.98,3.33.3-.51.77-1.12,1.41-1.83.64-.72,1.49-1.34,2.53-1.88,1.05-.54,2.3-.81,3.77-.81s2.78.37,4.04,1.12c1.26.75,2.28,1.81,3.07,3.2.79,1.39,1.19,3.02,1.19,4.9v13.51h-3.36v-13.42c0-1.88-.53-3.39-1.59-4.54-1.06-1.15-2.38-1.72-3.97-1.72s-3.07.55-4.26,1.65c-1.2,1.1-1.79,2.65-1.79,4.65v13.38h-3.36v-13.42c0-1.88-.53-3.39-1.59-4.54-1.06-1.15-2.39-1.72-3.97-1.72s-3.07.55-4.26,1.65c-1.2,1.1-1.79,2.65-1.79,4.65v13.38h-3.37Z"/>
    <path class="cls-1" d="M138.78,64.81c-2.27,0-4.25-.51-5.92-1.54s-2.96-2.42-3.86-4.18c-.9-1.76-1.35-3.7-1.35-5.82s.45-4.09,1.35-5.84c.9-1.74,2.18-3.13,3.86-4.16,1.67-1.03,3.65-1.54,5.92-1.54s4.28.51,5.94,1.54c1.66,1.03,2.94,2.42,3.83,4.16s1.35,3.69,1.35,5.84-.45,4.06-1.35,5.82-2.18,3.15-3.83,4.18c-1.66,1.03-3.64,1.54-5.94,1.54ZM138.78,61.77c1.67,0,3.09-.39,4.24-1.16,1.15-.78,2.03-1.81,2.62-3.11s.9-2.71.9-4.23-.3-2.97-.9-4.25c-.6-1.28-1.47-2.31-2.62-3.09-1.15-.78-2.56-1.16-4.24-1.16s-3.05.39-4.22,1.16c-1.17.78-2.05,1.8-2.65,3.09-.6,1.28-.9,2.7-.9,4.25s.3,2.93.9,4.23c.6,1.3,1.48,2.33,2.65,3.11,1.17.78,2.57,1.16,4.22,1.16Z"/>
    <path class="cls-1" d="M154.98,64.46v-29.62h13.32c2.33,0,4.18.4,5.54,1.21,1.36.81,2.34,1.81,2.94,3.02.6,1.21.9,2.41.9,3.6,0,1.91-.4,3.38-1.21,4.41s-1.73,1.78-2.78,2.26c.84.27,1.68.69,2.54,1.27.85.58,1.56,1.36,2.13,2.35.57.98.85,2.22.85,3.71,0,2.21-.84,4.06-2.53,5.55-1.69,1.49-4.22,2.24-7.6,2.24h-14.08ZM158.34,48.08h9.96c1.05,0,2.03-.18,2.94-.54.91-.36,1.65-.92,2.22-1.68.57-.76.85-1.74.85-2.93,0-.83-.19-1.62-.56-2.37-.37-.75-.97-1.36-1.79-1.83-.82-.48-1.92-.72-3.3-.72h-10.32v10.07ZM158.34,61.28h11.08c2.03,0,3.61-.42,4.73-1.27,1.12-.85,1.68-2.05,1.68-3.6,0-1.4-.54-2.63-1.61-3.69-1.08-1.06-2.8-1.59-5.16-1.59h-10.72v10.16Z"/>
    <path class="cls-1" d="M193.6,64.81c-2.27,0-4.25-.51-5.92-1.54s-2.96-2.42-3.86-4.18c-.9-1.76-1.35-3.7-1.35-5.82s.45-4.09,1.35-5.84c.9-1.74,2.18-3.13,3.86-4.16,1.67-1.03,3.65-1.54,5.92-1.54s4.28.51,5.94,1.54c1.66,1.03,2.94,2.42,3.83,4.16s1.35,3.69,1.35,5.84-.45,4.06-1.35,5.82-2.18,3.15-3.83,4.18c-1.66,1.03-3.64,1.54-5.94,1.54ZM193.6,61.77c1.67,0,3.09-.39,4.24-1.16,1.15-.78,2.03-1.81,2.62-3.11s.9-2.71.9-4.23-.3-2.97-.9-4.25c-.6-1.28-1.47-2.31-2.62-3.09-1.15-.78-2.56-1.16-4.24-1.16s-3.05.39-4.22,1.16c-1.17.78-2.05,1.8-2.65,3.09-.6,1.28-.9,2.7-.9,4.25s.3,2.93.9,4.23c.6,1.3,1.48,2.33,2.65,3.11,1.17.78,2.57,1.16,4.22,1.16Z"/>
    <path class="cls-1" d="M218.81,64.81c-2.27,0-4.25-.51-5.92-1.54s-2.96-2.42-3.86-4.18c-.9-1.76-1.35-3.7-1.35-5.82s.45-4.09,1.35-5.84c.9-1.74,2.18-3.13,3.86-4.16,1.67-1.03,3.65-1.54,5.92-1.54s4.28.51,5.94,1.54c1.66,1.03,2.94,2.42,3.83,4.16s1.35,3.69,1.35,5.84-.45,4.06-1.35,5.82-2.18,3.15-3.83,4.18c-1.66,1.03-3.64,1.54-5.94,1.54ZM218.81,61.77c1.67,0,3.09-.39,4.24-1.16,1.15-.78,2.03-1.81,2.62-3.11s.9-2.71.9-4.23-.3-2.97-.9-4.25c-.6-1.28-1.47-2.31-2.62-3.09-1.15-.78-2.56-1.16-4.24-1.16s-3.05.39-4.22,1.16c-1.17.78-2.05,1.8-2.65,3.09-.6,1.28-.9,2.7-.9,4.25s.3,2.93.9,4.23c.6,1.3,1.48,2.33,2.65,3.11,1.17.78,2.57,1.16,4.22,1.16Z"/>
    <path class="cls-1" d="M242.45,64.81c-2.06,0-3.81-.34-5.23-1.03-1.42-.69-2.5-1.59-3.25-2.71-.75-1.12-1.17-2.33-1.26-3.65h3.5c.09.75.35,1.47.79,2.17.43.7,1.1,1.27,2,1.7.9.43,2.06.65,3.5.65.45,0,1-.04,1.66-.13.66-.09,1.29-.25,1.91-.49s1.13-.6,1.55-1.07c.42-.48.63-1.09.63-1.83,0-.92-.36-1.64-1.08-2.15-.72-.51-1.65-.9-2.78-1.19-1.14-.28-2.34-.56-3.61-.83-1.27-.27-2.47-.62-3.61-1.05-1.14-.43-2.06-1.04-2.78-1.83-.72-.79-1.08-1.87-1.08-3.24,0-2.03.74-3.6,2.22-4.72,1.48-1.12,3.67-1.68,6.57-1.68,1.97,0,3.58.31,4.82.92s2.18,1.39,2.83,2.35c.64.95,1.02,1.98,1.14,3.09h-3.41c-.12-.95-.59-1.77-1.41-2.46-.82-.69-2.17-1.03-4.06-1.03-3.56,0-5.34,1.07-5.34,3.22,0,.89.36,1.58,1.08,2.06.72.48,1.64.86,2.78,1.14,1.14.28,2.34.55,3.61.81s2.47.6,3.61,1.05c1.14.45,2.06,1.08,2.78,1.9.72.82,1.08,1.93,1.08,3.33,0,2.18-.83,3.84-2.49,4.99-1.66,1.15-3.88,1.72-6.66,1.72Z"/>
    <path class="cls-1" d="M258.24,64.46v-19.42h-4.58v-2.95h4.58v-8.01h3.36v8.01h5.16v2.95h-5.16v19.42h-3.36Z"/>
  </g>
</svg>